<svg xmlns="http://www.w3.org/2000/svg" viewBox="0 0 520 140" role="img" aria-label="Dental Stories logo">
  <defs>
    <linearGradient id="ds-gradient" x1="0" x2="1" y1="0" y2="1">
      <stop offset="0%" stop-color="#7bd1e3" />
      <stop offset="100%" stop-color="#4aa6c7" />
    </linearGradient>
  </defs>
  <rect width="520" height="140" fill="none" />
  <g transform="translate(14 18)">
    <path
      d="M62 20c10 0 18 8 18 18 0 19-8 38-18 50-5 6-10 10-16 10s-11-4-16-10C20 76 12 57 12 38c0-10 8-18 18-18 6 0 11 3 14 7 3-4 8-7 18-7z"
      fill="url(#ds-gradient)"
    />
    <path
      d="M39 44c4-4 10-4 14 0"
      stroke="#e9f6fb"
      stroke-width="6"
      stroke-linecap="round"
    />
  </g>
  <text
    x="120"
    y="70"
    font-size="52"
    font-weight="700"
    font-family="Poppins, 'Nunito', 'Trebuchet MS', sans-serif"
    fill="#4aa6c7"
  >
    Dental
  </text>
  <text
    x="120"
    y="118"
    font-size="48"
    font-weight="600"
    font-family="Poppins, 'Nunito', 'Trebuchet MS', sans-serif"
    fill="#7bd1e3"
  >
    Stories
  </text>
</svg>
